<svg width="186" height="132" xmlns="http://www.w3.org/2000/svg" xmlns:xlink="http://www.w3.org/1999/xlink" xml:space="preserve" overflow="hidden"><g><path d="M52.439 3.98C52.439 3.98 55.029 8.862 53.543 12.98 52.123 16.916 50.198 23.917 48.288 17.889 48.132 17.398 47.593 17.141 47.114 17.329 44.601 18.314 36.864 21.308 23.635 26.076 18.99 27.75 15.962 32.022 14.624 34.451 10.941 41.137 6.672 59.732 6.059 78.485 5.723 88.754 5.754 99.2 9.275 107.461 9.275 107.461 12.036 112.604 18.002 112.988 18.66 113.03 19.132 113.643 19.023 114.294L17.925 120.842C17.81 121.63 18.389 122.35 19.184 122.404 24.708 122.778 45.004 123.949 66.809 122.68 81.228 121.841 96.465 121.134 108.265 116.503L107.583 103.855C107.562 103.47 107.888 103.176 108.273 103.198 114.23 103.534 122.567 104.227 134.215 98.801 134.215 98.801 153.478 99.82 157.299 94.184 161.12 88.548 160.109 84.17 160.109 84.17 160.224 83.76 160.462 83.397 160.789 83.125 161.862 82.236 164.441 79.869 166.214 76.353 171.818 65.241 179.212 37.146 179.212 37.146 179.212 37.146 181.852 31.063 180.139 27.585 179.266 25.813 177.066 26.003 173.262 26.057 166.494 26.153 155.071 25.951 145.073 26.206 137.224 26.406 131.405 27.172 129.153 31.3L118.995 68.704C118.834 69.273 118.013 69.226 117.918 68.642L114.506 47.729C114.506 47.729 113.483 36.992 103.02 31.777 92.557 26.562 88.185 24.358 86.614 23.085 85.043 21.811 80.161 22.66 80.161 22.66 79.781 22.263 78.684 14.574 78.622 14.028L78.177 10.116 53.203 2.748C52.584 2.569 52.481 3.336 52.439 3.98Z" fill="#FFFFFF"/><path d="M29.314 86.177C27.95 83.731 8.885 85.852 6.926 88.395 6.735 88.538 6.627 88.768 6.64 89.006 6.813 92.293 7.138 95.457 7.604 98.411 7.92 100.418 8.347 102.762 9.114 104.932 9.299 105.507 10.158 105.575 10.424 105.026 13.936 98.973 18.565 94.39 23.834 90.256 24.931 89.281 29.345 87.505 29.314 86.177Z" fill="#FFFFFF"/><path d="M93.279 118.71C92.407 116.822 92.663 114.588 92.632 112.472 92.651 108.019 92.971 103.541 92.949 99.07 92.931 97.992 92.912 96.877 93.045 95.847 93.111 95.414 92.72 94.996 92.282 95.041 85.768 95.533 78.036 96.077 71.051 97.023 68.939 97.322 66.754 97.631 64.622 97.519 62.475 98.822 60.317 100.158 57.563 101.583 57.217 101.769 57.086 102.198 57.268 102.546 59.56 106.931 58.925 116.946 58.468 120.684 58.221 122.703 57.701 124.678 59.281 124.763 70.409 124.248 81.47 123.995 92.391 121.641 92.909 121.513 93.717 120.875 93.598 120.429 93.707 119.885 93.27 119.297 93.279 118.71Z" fill="#FFFFFF"/><path d="M93.524 88.08C92.275 87.947 91.119 87.636 90.089 87.158 89.891 87.066 89.661 87.07 89.465 87.168 86.962 88.501 83.655 89.489 81.555 88.829 80.856 88.687 80.012 90.037 78.984 90.363 78.109 90.564 77.878 91.853 78.922 91.933 82.155 91.554 92.167 90.605 93.428 90.505 94.223 90.477 94.096 89.382 94.162 88.848 94.193 88.462 93.91 88.121 93.524 88.08Z" fill="#FFFFFF"/><path d="M92.675 72.178C92.997 72.023 93.211 71.706 93.233 71.35 94.052 58.045 89.67 40.717 87.271 29.508 87.16 28.953 86.392 28.749 86.03 29.196 78.282 37.913 58.789 29.552 54.658 27.708 53.687 27.484 51.19 25.526 50.465 26.013 53.299 43.219 55.581 63.499 55.866 83.559 55.873 84.023 56.311 84.358 56.76 84.241 68.431 81.195 81.566 77.528 92.675 72.178Z" fill="#FFFFFF"/><path d="M57.413 102.716C57.337 102.254 56.781 101.981 56.371 102.216 51.266 104.949 45.793 107.082 40.639 108.98 34.139 111.391 27.138 113.619 19.996 113.6 19.593 113.592 19.243 113.965 19.281 114.367 19.806 115.995 17.557 123.297 19.167 123.191 31.967 124.551 44.575 125.086 57.39 124.811 57.841 124.814 58.731 124.213 58.595 123.783 59.584 116.801 58.533 109.259 57.413 102.716Z" fill="#FFFFFF"/><path d="M107.847 116.907C106.741 113.432 107.087 109.197 106.737 105.713 106.698 102.215 106.242 98.304 107.089 94.925 107.272 94.456 106.856 93.911 106.353 93.971 103.095 94.253 99.776 94.495 96.566 94.728 95.655 94.995 93.472 94.357 93.453 95.72 93.617 102.747 92.8 109.932 92.843 117.203 92.851 118.583 92.652 119.495 92.97 120.483 93.139 121.006 93.867 121.324 94.368 121.107 96.618 120.438 99.313 119.718 102.247 119.444 103.353 119.338 108.997 118.869 107.847 116.907Z" fill="#FFFFFF"/><path d="M109.211 87.508C101.15 85.021 106.336 84.488 97.733 87.805 96.404 88.136 95.829 88.247 94.405 88.094 94.016 88.044 93.637 88.358 93.615 88.75 93.564 89.356 93.318 90.593 94.309 90.52 98.617 90.164 103.419 89.647 109.169 88.922 109.956 88.845 110 87.634 109.211 87.508Z" fill="#FFFFFF"/><path d="M117.546 71.727C116.271 70.285 116.271 67.324 115.874 65.259 113.999 42.75 113.325 35.853 89.979 25.866 89.408 25.652 85.787 22.985 85.484 22.885 84.521 22.586 81.757 22.134 81.19 22.965 80.938 24.475 84.148 26.843 85.266 27.714 85.439 27.833 85.843 27.892 86.346 27.902 86.976 27.914 87.52 28.348 87.673 28.96 90.796 41.411 93.692 55.747 93.677 70.53 93.664 71.011 94.19 71.384 94.64 71.203 99.262 69.375 103.129 70.588 108.99 73.065 109.202 73.154 110.102 72.921 110.423 73.694 110.85 74.722 112.146 74.518 115.526 77.253 115.908 77.597 116.394 77.551 116.508 77.051 116.708 75.574 118.03 72.715 117.546 71.727Z" fill="#FFFFFF"/><path d="M29.418 85.522C29.641 85.581 33.227 87.235 34.156 87.449 35.114 87.669 36.105 87.897 37.112 88.031 38.275 88.27 39.424 88.375 40.563 88.375 44.849 88.375 48.974 86.885 52.992 85.433 53.669 85.188 55.227 84.789 55.623 84.184 55.825 83.876 55.24 79.493 55.218 77.616 55.183 74.64 55.146 71.562 55.029 68.531 54.674 59.299 53.978 50.851 52.902 42.709 52.159 36.554 50.858 30.411 49.599 24.47 49.132 22.267 48.65 19.989 48.203 17.745 48.155 17.502 47.985 17.302 47.753 17.215 47.521 17.128 47.261 17.166 47.065 17.316 44.95 18.934 42.285 19.821 39.708 20.679 39.708 20.679 35.814 21.997 34.106 22.532 28.513 24.284 22.731 26.095 18.446 30.372 18.435 30.383 18.424 30.395 18.414 30.406 11.023 38.823 9.351 51.108 7.876 61.947L7.697 63.257C7.696 63.264 7.695 63.271 7.695 63.277 6.696 72.517 6.33 79.973 6.545 86.743 6.553 86.99 6.688 87.216 6.902 87.34 7.116 87.464 7.379 87.469 7.597 87.353 10.678 85.717 18.347 85.033 18.347 85.033 22.148 84.65 25.818 84.567 29.418 85.522Z" fill="#FFFFFF"/><path d="M180.127 29.465C181.37 24.527 173.085 25.983 169.356 26.098 157.104 26.489 145.908 26.47 136.267 26.912 129.947 27.704 128.754 32.691 127.345 37.859 122.443 54.39 118.723 71.205 114.224 87.627 114.178 87.794 112.777 88.2 112.444 88.315 100.045 90.648 87.576 90.514 75.19 92.611 71.208 92.89 67.102 93.779 62.95 94.405 61.564 94.975 62.922 96.504 63.808 97.231 64.377 97.53 65.153 97.311 65.828 97.431 73.469 96.718 81.119 95.65 88.687 95.214 92.877 94.907 97.205 94.488 101.414 94.213 105.377 93.94 109.474 93.657 113.432 93 114.054 92.878 116.351 91.716 117.324 91.91 119.74 91.735 122.118 91.376 124.535 91.065 128.612 90.604 132.63 89.507 136.702 89.198 138.295 88.447 140.045 87.926 141.698 87.19 145.568 85.707 145.454 78.354 147.083 77.845 149.539 79.901 148.373 74.752 149.469 74.059 150.201 73.556 150.594 75.042 151.356 74.765 151.651 74.677 151.858 74.41 151.868 74.103 151.978 71.341 153.899 70.091 155.078 72.462 155.71 73.371 156.963 72.026 157.797 72.82 161.138 75.135 159.458 83.902 161.552 82.583 161.922 82.366 162.287 82.106 162.379 81.676 163.742 80.089 164.741 78.673 165.522 77.219 171.484 62.651 178.061 46.596 180.127 29.465Z" fill="#FFFFFF"/><path d="M181.241 27.956C181.117 27.279 180.901 26.458 180.345 26.016 179.584 25.41 178.576 24.998 177.6 25.069 164.037 25.111 150.472 25.38 136.913 25.693 135.991 25.669 135.063 25.878 134.204 26.206 129.151 27.383 127.784 31.781 126.55 36.225 123.435 46.412 120.884 56.753 118.296 67.083 115.948 49.543 117.835 36.58 99.111 27.993 95.368 26.021 91.26 24.869 87.548 22.839 85.971 21.268 83.076 21.155 80.945 21.79 79.983 19.904 79.467 17.81 79.401 15.695 79.388 15.267 78.727 15.006 78.525 15.458 76.54 19.984 80.594 26.124 84.393 28.534 81.75 31.608 76.843 31.538 73.116 31.332 65.287 30.695 57.53 28.232 50.749 24.275 50.508 23.287 50.251 22.303 49.973 21.325 53.138 18.283 55.02 13.943 54.622 9.525 54.447 7.685 53.958 4.709 52.758 3.295 52.389 2.897 51.762 3.224 51.739 3.717 51.692 4.728 52.146 5.765 52.339 6.754 53.341 11.264 52.57 15.793 49.336 19.22 49.058 18.359 48.762 17.504 48.441 16.657 48.261 16.181 47.744 16.158 47.48 16.428 38.219 20.069 27.66 20.879 19.378 26.785 6.124 37.244 5.217 64.537 4.376 80.39 4.448 89.461 4.355 100.873 8.675 108.983 10.626 112.487 13.91 114.201 17.907 114.275 17.521 116.438 17.044 118.538 16.665 120.697 16.494 121.698 16.219 122.683 16.674 123.63 17.119 124.558 18.339 124.322 18.839 123.63 19.36 122.909 19.263 121.777 19.376 120.913 19.653 118.713 20.154 116.55 19.994 114.315 27.208 114.335 34.191 112.135 40.886 109.651 46.277 107.665 51.634 105.563 56.707 102.847 57.838 108.903 58.062 115.109 57.596 121.246 57.496 122.471 59.407 122.465 59.506 121.246 59.783 116.208 60.242 106.693 57.902 102.213 60.031 101.068 62.141 99.894 64.218 98.659 64.415 98.542 64.531 98.392 64.583 98.233 67.935 98.41 71.245 97.6 74.573 97.308 80.478 96.637 86.406 96.192 92.333 95.755 92.116 97.434 92.282 99.227 92.237 100.905 92.184 102.857 92.112 104.808 92.044 106.759 91.978 108.658 91.949 110.559 91.915 112.458 91.88 114.39 91.692 116.407 92.017 118.316 92.172 119.228 93.703 119.228 93.859 118.316 94.178 116.454 94.031 114.499 94.056 112.613 94.132 108.762 94.178 104.912 94.184 101.06 94.19 99.296 94.407 97.384 94.162 95.622 98.247 95.32 102.334 95.038 106.415 94.683 105.835 96.309 105.962 98.293 105.91 99.98 105.851 101.898 105.942 103.826 106.022 105.742 106.143 108.633 106.335 111.52 106.585 114.403 106.672 115.406 106.699 116.372 107.223 117.261 107.757 118.167 109.028 117.905 109.351 116.983 109.667 116.08 109.519 115.19 109.439 114.26 109.36 113.342 109.287 112.424 109.22 111.505 109.03 108.843 108.875 106.178 108.823 103.509 110.969 103.618 113.067 104.178 115.21 104.287 121.874 104.45 128.241 101.968 134.425 99.776 136.05 100.212 137.738 100.098 139.41 100.088 141.261 100.054 143.113 99.956 144.952 99.744 155.107 98.705 161.081 95.125 161.129 84.133 162.358 83.543 163.643 82.733 164.11 81.386 166.229 78.893 167.501 75.87 168.636 72.836 170.104 69.186 171.505 65.508 172.823 61.801 176.036 52.619 179.032 43.291 180.821 33.715 181.139 31.869 181.584 29.828 181.241 27.956ZM89.604 26.477C91.511 27.65 93.542 28.537 95.569 29.478 114.009 37.097 113.357 47.939 115.163 65.362 115.585 67.586 115.562 70.555 117.007 72.2 116.612 73.759 116.215 75.317 115.812 76.873 114.345 75.624 112.71 74.56 111.029 73.615 110.486 65.95 110.557 58.049 107.792 50.743 107.679 50.432 107.192 50.554 107.288 50.882 109.383 57.958 109.244 65.377 109.273 72.676 104.752 70.359 99.359 68.711 94.392 70.531 94.408 55.065 91.246 39.741 87.356 24.838 88.07 25.432 88.813 25.99 89.604 26.477ZM83.392 25.219C82.813 24.622 82.292 23.975 81.828 23.288 83.01 23.239 84.143 23.173 85.245 23.56 85.329 24.751 85.648 25.895 85.947 27.049 85.862 27.072 85.78 27.106 85.703 27.147 84.919 26.541 84.065 25.97 83.392 25.219ZM54.704 28.52C62.904 32.208 79.638 37.68 86.571 29.665 88.864 39.891 90.849 50.217 91.691 60.675 92.079 64.252 91.828 67.915 92.261 71.456 81.129 77.219 68.616 79.453 56.783 83.352 56.904 64.384 55.351 45.35 51.328 26.793 52.405 27.468 53.594 28.001 54.704 28.52ZM8.407 63.356C9.909 52.404 11.405 39.476 18.952 30.881 24.425 25.417 32.492 24.073 39.489 21.508 42.248 20.586 45.164 19.673 47.5 17.887 49.149 26.173 51.175 34.395 52.189 42.797 53.319 51.339 53.981 59.951 54.312 68.56 54.502 73.493 54.477 78.425 54.588 83.358 54.594 83.633 54.681 83.853 54.815 84.021 49.175 85.992 43.321 88.587 37.231 87.326 35.271 87.067 33.375 86.44 31.417 86.181 31.556 85.23 31.395 84.296 31.33 83.338 31.256 82.246 31.232 81.151 31.217 80.057 31.213 73.842 30.367 67.583 31.315 61.401 31.416 60.762 30.482 60.469 30.322 61.127 29.331 65.208 29.294 69.435 29.372 73.612 29.497 77.258 29.285 80.911 29.52 84.553 25.623 83.519 21.69 83.982 17.756 84.374 14.188 84.69 10.482 85.011 7.259 86.722 7.014 78.937 7.577 71.039 8.407 63.356ZM9.79 104.693C9.057 102.62 8.635 100.35 8.311 98.299 7.826 95.228 7.521 92.11 7.355 88.968 10.83 86.366 16.939 86.475 21.172 85.96 23.65 85.743 26.186 85.715 28.613 86.325 26.993 87.594 25.138 88.515 23.434 89.661 21.282 91.091 19.488 92.948 17.668 94.766 14.689 97.765 11.765 100.923 9.79 104.693ZM44.75 105.147C36.215 108.307 22.831 113.844 13.909 110.445 12.368 109.556 11.281 108.012 10.486 106.382 12.713 102.327 15.847 98.888 19.115 95.652 20.948 93.832 22.734 92.043 24.929 90.657 25.957 90.008 27.014 89.404 28.036 88.744 28.824 88.235 29.899 87.634 30.556 86.865 30.842 86.909 31.155 86.805 31.309 86.562 35.225 88.69 39.821 89.534 44.241 88.883 47.48 88.352 50.555 87.151 53.637 86.065 63.275 82.606 73.389 80.657 82.975 77.054 85.785 75.985 88.655 75.155 91.311 73.728 99.818 68.16 108.13 72.798 115.58 77.764 115.309 78.805 115.034 79.846 114.758 80.886 111.967 77.988 108.86 74.708 104.597 74.488 102.722 74.406 100.876 74.781 99.018 74.964 98.606 75.005 98.602 75.572 99.018 75.608 100.702 75.756 102.393 75.764 104.078 75.882 108.892 76.203 111.113 79.742 114.272 82.706 114.088 83.384 113.921 84.068 113.728 84.74 111.061 81.699 104.934 78.231 100.911 79.676 98.358 79.109 95.694 79.186 93.21 80.117 93.089 80.163 93.095 80.363 93.243 80.358 99.239 79.974 105.462 81.619 109.206 86.602 107.836 86.319 106.548 85.75 105.284 85.166 101.638 83.258 97.647 82.239 93.747 84.094 91.571 85.085 89.555 86.391 87.374 87.374 84.703 88.577 82.109 88.713 79.308 87.887 78.933 87.777 78.738 88.297 79.05 88.5 79.385 88.717 79.722 88.899 80.06 89.056 78.615 90.015 77.103 90.746 75.617 91.633 70.913 92.247 66.223 92.965 61.549 93.78 60.769 93.916 60.869 94.963 61.461 95.253 61.653 96.168 62.173 96.904 62.845 97.535 56.84 100.139 50.885 102.859 44.75 105.147ZM111.493 87.006C110.008 84.465 107.515 82.503 104.946 81.146 106.929 81.67 108.812 82.705 110.429 83.977 111.406 84.733 112.175 85.69 113.125 86.464 112.918 86.942 112.673 87.404 112.37 87.843 112.035 87.881 111.701 87.918 111.366 87.956 111.394 87.909 111.416 87.859 111.432 87.808 111.59 87.584 111.647 87.286 111.493 87.006ZM92.503 89.862C92.023 89.901 89.748 90.06 87.128 90.314 84.109 90.607 80.633 91.009 78.922 91.217 79.701 90.775 80.784 90.263 81.38 89.525 83.626 90.085 85.904 89.526 88.092 88.598 88.165 88.567 89.219 88.088 89.286 88.056 89.454 87.975 89.621 87.893 89.787 87.809 90.638 88.203 91.561 88.484 92.512 88.658 92.505 88.705 92.5 88.753 92.5 88.803 92.5 89.143 92.5 89.482 92.5 89.822 92.501 89.834 92.503 89.848 92.503 89.862ZM91.11 87.122C94.32 85.24 98.014 83.676 101.685 85.238 97.47 87.367 95.912 87.919 91.11 87.122ZM94.396 88.86C95.59 88.9 96.787 88.78 97.906 88.5 99.226 88.144 100.424 87.458 101.667 86.907 102.361 86.588 103.103 86.443 103.796 86.133 105.434 86.876 107.199 87.858 109.079 88.212 104.196 88.827 99.299 89.293 94.397 89.705 94.396 89.424 94.396 89.142 94.396 88.86ZM95.303 93.961C86.432 94.716 77.538 95.21 68.717 96.476 67.743 96.602 66.762 96.706 65.778 96.713 65.268 96.717 64.705 96.585 64.211 96.671 63.689 96.254 63.208 95.746 63.027 95.111 66.969 94.434 70.921 93.819 74.884 93.277 75.095 93.408 75.37 93.345 75.577 93.185 87.849 91.387 100.316 91.244 112.529 89.02 112.791 89.225 113.16 89.317 113.495 89.214 113.469 90.19 113.443 91.166 113.417 92.142 113.36 92.189 113.312 92.24 113.271 92.294 107.374 93.272 101.263 93.406 95.303 93.961ZM159.143 86.325C158.85 89.85 157.702 93.395 154.496 95.26 149.224 98.122 142.908 98.129 137.055 98.187 136.055 98.302 133.63 97.199 133.298 98.451 127.381 100.567 121.279 102.901 114.909 102.879 112.845 102.802 110.831 102.407 108.81 102.933 108.783 101.077 108.686 99.224 108.651 97.368 108.628 96.435 108.665 95.377 108.323 94.499 110.076 94.265 111.887 94.229 113.601 93.763 113.85 93.904 114.164 93.92 114.485 93.71 115.291 93.186 116.053 93.244 116.975 93.172 122.804 92.549 128.605 91.682 134.378 90.653 134.15 91.138 134.051 91.672 134.152 92.248 134.217 92.619 134.773 92.757 135.013 92.475 135.539 91.858 135.895 91.124 136.499 90.568 138.276 89.033 140.785 88.856 142.754 87.653 146.03 85.669 145.601 82.417 146.995 79.45 147.668 81.587 147.592 83.876 147.435 86.085 147.196 88.203 146.921 91.652 144.276 91.968 143.985 92.012 144.003 92.406 144.201 92.541 146.329 93.99 147.975 90.506 148.435 89.008 149.289 86.224 149.402 83.167 148.917 80.305 149.093 78.422 149.164 76.495 149.723 74.68 150.403 75.482 150.502 76.633 150.717 77.631 151.02 79.397 151.324 81.176 151.557 82.951 151.847 85.124 151.934 87.335 151.654 89.514 151.557 90.265 151.261 91.036 151.454 91.785 151.559 92.192 152.11 92.344 152.402 92.035 154.56 88.77 152.596 79.393 151.745 75.529 152.205 75.001 152.515 71.295 153.623 71.802 154.452 72.354 154.964 75.174 155.211 76.193 155.919 79.292 156.059 82.485 155.538 85.629 155.322 87.104 154.952 88.545 155.073 90.043 155.116 90.576 155.888 90.908 156.172 90.341 156.804 89.076 157.014 87.748 157.22 86.36 157.988 81.971 157.631 77.445 156.154 73.236 159.749 73.035 159.37 83.855 159.143 86.325ZM179.347 30.803C177.165 44.875 172.172 58.391 167.074 71.631 166.373 73.386 165.738 75.212 164.843 76.879 164.003 78.444 162.943 79.862 161.789 81.206 161.675 81.339 161.609 81.493 161.581 81.652 161.439 81.768 161.288 81.873 161.13 81.972 161.043 79.087 160.238 70.189 155.655 72.105 153.774 68.803 151.212 70.94 151.106 74.077 150.815 73.661 150.435 73.354 149.929 73.271 147.949 72.988 148.173 76.335 147.911 77.619 145.996 75.426 144.627 81.183 144.34 82.421 143.863 84.242 143.09 85.698 141.341 86.544 139.804 87.288 138.098 87.636 136.604 88.483 132.555 88.784 128.472 89.892 124.397 90.354 122.497 90.632 120.59 90.83 118.686 91.077 117.423 91.241 116.076 91.165 114.85 91.489 114.82 90.351 114.789 89.212 114.759 88.074 114.756 87.949 114.712 87.834 114.643 87.738 115.241 86.525 115.573 85.206 115.932 83.887 119.5 70.769 122.481 57.497 126.149 44.406 127.194 40.677 128.198 36.894 129.493 33.243 130.05 31.673 130.854 30.017 132.294 29.082 133.438 28.43 134.891 27.949 136.145 27.634 138.182 27.505 140.239 27.551 142.283 27.475 153.417 27.254 164.552 27.054 175.688 26.977 176.523 26.96 177.411 26.911 178.238 26.998 178.528 27.097 178.906 27.366 179.152 27.536 179.563 28.567 179.477 29.733 179.347 30.803Z"/><path d="M59.786 39.105C65.031 42.867 74.149 43.092 79.719 39.905 80.597 39.378 80.029 37.844 79 38.2 75.386 39.449 71.774 40.281 67.917 39.966 65.194 39.776 62.537 38.849 60.284 37.309 59.832 37 58.653 36.047 58.338 37.042 58.073 37.876 59.217 38.662 59.786 39.105Z"/></g></svg>