<svg width="173" height="130" xmlns="http://www.w3.org/2000/svg" xmlns:xlink="http://www.w3.org/1999/xlink" xml:space="preserve" overflow="hidden"><g><path d="M158.92 41.27C145.48 42.3701 133.93 44.52 120.59 45.95 120.32 45.5 116.88 33.48 112.21 29.1899 108.97 26.9399 100.41 22.98 97.28 21.6699 97.0601 21.5801 97.35 20.77 97.02 19.79 96.6899 18.8101 91.6801 16.22 91.36 16.45 90.92 9.63989 89.91 4.91992 83.12 3.61011 77.04 2.3501 68.83 1.87012 65.5601 8.22998 65.2 8.18994 61.85 8.12012 60.6 8.71997 60.15 8.1499 55.97 12.6201 55.7 15.4099 55.6801 15.6499 56.12 16.29 56.58 16.72 53.33 17.99 50.1801 20.03 47.4 21.1001 26.9301 29 20.5699 29.8799 12.87 60.8701 10.96 68.5801 7.63 75.8601 6.98999 83.8101 5.46997 84.2 5.73999 87.1699 7.51001 87.5601 8.18005 87.71 8.73999 87.9099 9.23999 88.29 8.58997 100.21 9.31995 105.88 12.4399 110.74 16.0699 117.2 22.8101 117.79 29.21 115.53 28.7 117.71 28.86 119.02 28.86 120.12 49.89 119.45 73.5 119.34 96.49 120.54 99.4399 120.5 110.66 123.42 110.21 120.52 110.14 120.05 110.01 119.68 109.85 119.26 109.59 118.58 110.08 117.83 110.82 117.82 112.3 117.79 114.8 117.44 117.87 115.75 122.9 112.98 122.78 106.98 124.08 95.55 132.56 94.8601 155.33 93.1001 158.43 90.3799 161.53 87.6599 167.51 44.28 167.9 41.3301 167.9 41.3301 165.23 41.1599 158.92 41.27Z" fill="#FFFFFF"/><path d="M105.29 122.86C95.9301 122.69 89.48 121.39 76.0699 121.23 59.09 120.9 44.83 120.22 28.61 120.66L28.92 115.89 49.03 106.12 67.46 96.3701 76.03 91.9399 78.28 92.8101C78.28 92.8101 88.22 97.6399 95.48 98.25 101.5 98.76 109.34 97.46 109.34 97.46 109.34 97.46 108.33 104.35 108.76 108.78 109.2 113.21 110.44 121.96 110.44 121.96 109.3 123.01 107.37 122.74 105.29 122.86ZM32.29 90.8701 31.2 89.8301 23.61 86.9199 9.39001 84.26 9.20996 87.8701C9.20996 87.8701 6.59998 87.76 6.05005 86.3501 5.51001 84.9299 6.87 83.4099 6.87 83.4099 8.71997 70.6699 11.84 62.6799 15.34 52.23 21.38 34.21 25.8199 28.6799 43.36 22.8301L44.59 22.3999C48.09 21.0701 52.34 18.6001 56.58 16.72 56.1899 16.3701 55.85 16.04 55.74 15.1799 55.66 14.6101 59.01 8.83008 60.72 8.46997 61.64 8.41992 64.1 7.86011 65.95 8.37012 66.34 8.47998 64.77 13.5801 64.77 13.5801 64.77 13.5801 68.39 17.3201 77.91 23.2 81.51 25.4199 78.02 31.74 78.67 33.8701 79.33 35.99 83.03 38.5 83.03 38.5 83.03 38.5 83.52 36.21 84.61 34.4099 85.7 32.6101 89.29 29.3301 89.29 29.3301 89.29 29.3301 92.61 23.8999 92.5 22.05 92.39 20.2 91.01 16.24 91.01 16.24 91.01 16.24 91.47 15.98 92.2 16.23 93.27 17.04 94.6 17.45 97.05 20.0901 97.53 20.6101 97.4 21.21 97.46 21.9199 98.91 21.98 99.09 22.3 100.91 23.4099 104.21 25.4299 109.06 27.27 111.86 29.0801 114.06 30.8101 115.76 33.45 116.56 36.04 117.62 39.22 118.91 42.71 120.57 45.8999 120.6 45.8999 113.31 46.5 110.77 48.6699 108.22 50.8401 101.55 80.02 101.55 80.02 101.55 80.02 95.1801 74.24 93.64 73.6001 92.09 72.95 89.39 74.23 89.39 74.23 89.39 74.23 76.46 77.6399 76.12 79.1599 75.9301 80.01 41.14 88.4199 32.29 90.8701Z" fill="#FFFFFF"/><path d="M122.52 45.6299C120.71 45.9399 118.45 46.1899 116.64 46.53 115.13 46.8101 112.98 47.3601 111.7 48.1299 110.35 48.9399 109.58 51.1699 109.12 52.5901 105.63 63.53 101.84 77.8 99.42 88.8501 99.42 88.8501 98.5 88.5901 97.55 88.3101 96.4301 87.97 95.16 88.1899 94.8199 88.2 96.5601 91.6399 93.6801 92.3999 90.6899 90.74 89.03 90.01 88.03 88.8601 86.15 88.8201 85.05 88.8 83.4301 89.5701 82.48 90.0901 80.88 90.9399 78.5601 91.9399 76.8199 91.3601 76.74 91.4299 75.86 92.1001 75.77 92.1599 79.47 93.1001 82.65 94.28 85.9 95.46 89.15 96.8799 92.73 97.98 96.2 98.3601 96.1899 98.4299 98.29 98.4299 98.27 98.51 113.35 95.7 135.8 94.5901 151.04 92.5901 155.29 92.3301 159.33 91.4299 160.15 86.46 160.1 86.3 163.21 70.6599 164.44 62.79 164.94 59.8501 167.7 41.45 167.7 41.45 152.64 41.8999 137.35 43.0701 122.52 45.6299Z" fill="#FFFFFF"/><path d="M110.46 122.71C109.26 122.37 109.25 120.7 109.03 119.67 107.83 112.52 107.57 105.68 108.64 98.6399 105.38 99 102.16 99.3999 98.73 99.45 98.4399 99.46 98.17 99.3301 97.99 99.1001 97.8 99.4099 97.45 99.5901 97.09 99.5801 89.37 99.3401 83.12 95.04 76.09 92.6299L71.91 94.8301C71.53 96.05 70 96.54 68.83 96.4399 55.0601 103.31 43.6899 110.36 29.66 116.23 29.55 117.35 29.8101 118.46 29.76 119.57 29.8 120.35 28.73 121.26 28.1899 120.39 27.73 119.18 28.28 117.84 28.46 116.61 19.04 119.95 11.88 114.84 9.44995 105.34 8.05005 98.76 8.59998 91.54 9.19995 85.0601 8.72998 84.9399 8.22998 84.8601 7.75 84.8899 7.52002 85.25 7.06995 85.4199 6.65002 85.3701 5.82996 86.4199 7.87 87.26 8.73999 87.6001 9.08997 87.8 8.85999 88.1799 8.48999 88.0701 6.42004 88.25 4.14001 86.24 5.82996 84.3 6.98999 75.8501 9.26001 68.46 11.6 59.98 14.21 51.4299 16.54 42.0801 21.61 34.8501 29.66 23.95 44.51 22.4199 56.01 16.49 55.9399 16.3601 55.87 16.22 55.8 16.0901L55.76 16.1299 55.76 16.1299 55.76 16.1299C55.24 16.48 54.62 15.8301 54.6899 15.29 54.86 14.4399 55.58 13.8101 55.97 13.0601 57.08 11.3799 58.11 9.36011 60.01 8.43994 60.04 8.30005 60.3 8.19995 60.42 8.27002 61.9301 7.71997 63.71 7.84009 65.23 7.98999 65.41 7.43994 65.58 6.56006 66.12 6.23999 66.89 5.69995 68.04 6.13989 68.27 7.05005 68.38 9.27002 66.95 11.45 65.39 13.1201 67.9301 15.48 70.61 17.6599 73.55 19.49 77.54 21.6399 82.33 24.8201 80.1801 30.03 79.74 31.52 79 33.26 80.04 34.6499 82.47 36.8999 85.22 39.03 86.27 42.3501 86.71 43.6799 87.51 46.4199 86.11 47.27 85.05 46.98 85.53 45.0901 85.17 44.22 84.53 41.52 82.78 39.1799 80.66 37.4399 77.88 35.6201 77.23 33.03 78.4399 30 78.88 28.73 79.1899 27.1101 78.78 26.0701 76.05 29.6299 73.1899 33.28 70.62 36.8301 70.86 37.3999 70.12 38.01 69.66 37.98 68.39 37.96 67.04 35.47 66.41 34.25 65.25 32.03 64.41 29.72 63.25 27.5 61.4399 23.8101 58.89 20.6001 56.49 17.29 54.58 19.04 51.85 20.3101 49.62 21.3201L49.62 21.3201C42.41 24.55 33.78 26.72 27.84 31.71 20.7 37.8101 18.52 46.6101 15.63 55.3999 13.59 62.0701 11.26 70.55 9.65002 77.6599L9.65002 77.6699C9.21997 79.54 8.78003 81.48 8.23999 83.3601 11.36 83.72 34.24 86.9299 32.79 90.26 33.1899 90.1499 33.7 90 34.09 89.8999 33.62 89.1699 33.83 87.97 33.88 87.0701 34.2 81.3799 34.87 75.9299 35.58 70.3501 35.1 68.3799 34.15 66.27 33.34 64.3899 33.28 64.28 33.4 64.1799 33.5 64.1799 34.62 64.99 35.38 66.28 36.0601 67.47 38.28 57.9099 38.23 73.9299 37.83 76.0601 37.6 80.25 37.11 85.04 36.12 89.3301 45.05 86.8301 54.97 84.2 64.17 81.77 64.8101 80.6399 65.99 79.6699 67.34 79.6499 68.37 79.76 69.61 80.0601 67.98 80.75 69.01 80.47 70.9 79.97 71.9 79.6699L71.9 79.6699C73.14 79.3101 74.41 78.9399 75.6899 78.71 79.01 77.0701 82.6 75.8701 86.08 74.71 88.84 74.0801 93.59 71.03 95.49 74.3799 96.7 75.1899 97.79 76.1699 98.86 77.1399 99.21 77.4399 99.51 77.6599 99.6 78.1599 99.45 79.6499 97.65 77.8899 97.16 77.28L97.16 77.28C96.51 76.5601 95.79 75.8799 95.26 75.2 94.98 75.3601 94.58 75.3 94.4399 74.99 93.64 73.5 91.64 74.25 90.4 74.6599L90.4 74.6599C85.96 75.97 81.38 77.46 76.89 78.78 77.8 80.1799 72.79 80.6499 71.86 81.0601L71.86 81.0601C69.87 81.53 67.9 82.0701 65.91 82.5901 64.4 84.8899 66.41 94.26 69.5699 94.49 72.05 93.22 74.47 91.97 76.88 90.74 77.26 90.52 77.75 90.78 77.85 91.1899 83.74 90.1499 84.33 86.01 90.85 90 91.6801 90.4099 92.73 90.96 93.6899 90.98 96.08 90.6599 94.17 87.8201 92.87 87.24 90.4 85.76 87.51 85.71 84.8 85.1799 84.6 85.1001 84.48 84.9099 84.49 84.7 84.49 84.52 84.62 84.3701 84.8 84.3401 86.08 84.0601 87.38 84.3601 88.66 84.6599 90.85 85.1699 93.8 85.97 95.25 88.0801 96.33 87.0901 97.73 88.3799 98.96 88.0601 101.18 76.54 104.03 65.5601 107.63 54.4399 109.58 46.4299 111.81 46.6599 119.24 45.4099 117.33 41.51 116.47 37.7 114.38 33.9099 111.16 27.75 103.78 26.3701 98.7 22.3201 98.58 22.24 98.6899 22.0601 98.8199 22.0601 100.5 22.8601 102.27 23.5701 104.01 24.1899L104.01 24.1899C111.83 26.6499 116.63 30.3 118.89 38.46L118.89 38.47C119.6 40.71 120.54 42.8601 121.6 44.99 137.06 42.5601 153.09 40.1899 168.62 40.5901 168.8 40.8101 168.87 41.0901 168.82 41.3701 167.38 49.8999 166.14 58.22 164.73 66.73 163.49 73.95 162.46 80.8 161.03 87.8799 159.67 94.3201 152.56 93.5801 147.51 94.29 145.5 94.4399 126.85 96.6399 124.42 96.8899 124.77 99.9099 124.71 103.03 124.52 106.16 124.39 108.7 124.37 111.35 122.38 113.37 119.46 116.29 115.37 119.47 110.89 119.12 111.05 120.19 111.94 122.32 110.46 122.71ZM123.47 97C118.9 97.52 114.07 98.04 109.68 98.52 109.34 104.26 109.6 110.67 110.4 116.14 110.98 116.18 111.04 116.78 111.72 116.72 115.44 116.22 118.59 113.32 120.66 110.37 121.55 107.97 121.36 105.89 121.95 103.17 121.95 103.17 123.47 97 123.47 97L123.47 97ZM9.45996 85.1201C9.58997 92.3 8.93005 99.8999 11.29 106.92 16.4399 120.93 28.22 116.28 38.27 110.68L38.27 110.68C47.6 105.8 57.16 100.9 67.0699 95.78 63.84 93.21 63.17 87.27 63.64 83.1899 53.62 85.8501 43.5601 88.6299 33.4399 91.04 28.74 92.3301 23.5 92.8201 19.64 96.1001 19.55 96.1799 19.48 96.1799 19.54 96.1001 21.72 93.1201 27.12 91.9399 30.73 90.8401 24.77 88.74 19.95 87.3301 14.61 86.3401L14.61 86.3401C12.87 86.0701 11.16 85.5701 9.45996 85.1201ZM167.04 42.01C149.17 42.51 131.42 44.6001 113.89 48 109.55 48.8999 109.82 54.49 108.33 57.8201 105.5 67.1399 103.08 76.25 101.04 85.5801 101.04 85.5801 101.04 85.5801 101.04 85.5801 100.12 89.75 99.37 92.9399 98.1 97.71 112.74 94.97 135.79 93.26 150.9 91.28 153.73 90.9099 157.19 91.3701 158.57 88.1899 160.41 82.8999 160.79 76.8701 161.87 71.4099 162.89 65.3201 165.87 48.3 167.04 42.01ZM97.09 97.3401C97.3101 97.3401 97.53 97.3999 97.72 97.53L98.74 89.3C97.76 89.27 96.35 88.3 95.4 88.3201 96.37 89.8101 95.88 92.22 93.8199 92.1399 90.9399 92.0901 88.8101 89.55 85.9399 89.4299 83.13 89.75 80.75 92.27 77.66 91.79 77.59 91.8601 77.3199 91.99 77.22 92.04 84.16 92.8 90.04 97.3799 97.09 97.3401ZM60.47 9.31006C58.33 10.73 57.65 13.5 56.22 15.5L56.22 15.5 56.22 15.5C56.17 15.5701 56.11 15.6399 56.0699 15.7 58.0601 18.1001 60.78 20.79 62.48 23.4299 65.4 27.3301 66.48 32.1899 69.4301 36.03 70.55 33.9399 71.86 32.6699 73.4399 30.6399 75.05 28.9099 76.51 26.75 78.49 25.3899 77.52 23.76 75.8 22.8201 74.3199 21.9099 71.85 20.4199 68.65 18.3401 66.38 16.24 64.3199 14.52 62.03 11.6699 60.47 9.31006ZM65.11 8.46997C63.8199 8.58008 62.41 8.55005 61.2 8.97998 62.28 10 63.28 11.0701 64.33 12.1101 64.51 10.99 64.9 9.6001 65.11 8.46997ZM64.78 114.62C64.3199 114.61 63.97 114.06 64.2 113.64 65.85 110.5 67.77 107.58 69.63 104.81 71.3101 102.4 72.89 99.6299 74.9399 97.55 75.01 97.51 75.11 97.5601 75.11 97.6499 75.14 98.3501 74.75 99.02 74.45 99.6699 71.89 104.72 68.6899 111.08 64.78 114.62L64.78 114.62ZM98.3 85.55C97.46 85.6299 96.39 84.71 95.6899 83.8999 94.4399 82.21 92.3101 82.5601 90.5 82.8999 89.33 83.01 85.15 83.76 84.52 83.45 85.58 83.1201 91.55 81.96 92.76 81.71 94.86 81.23 96.15 82.95 97.5 84.21 97.88 84.5 98.33 84.6699 98.8 84.7 99.22 84.71 99.33 85.3501 98.91 85.45 98.71 85.51 98.51 85.54 98.3 85.55ZM99.6 81.45C98.1 81.1299 96.98 79.99 95.73 79.1799 94.5699 78.3501 92.86 78.3799 91.38 78.55 88.1899 78.75 85.4 79.48 82.3199 79.8899L82.3199 79.8799C82.15 79.8799 82.0601 79.6299 82.23 79.55 84.79 78.26 88.91 77.8701 91.74 77.3899 94.9301 76.79 97.98 78.5801 99.84 81.0601 99.95 81.22 99.8 81.45 99.6 81.45ZM43.58 60.72C43.34 60.74 43.13 60.5601 43.1 60.3301 42.2 54.5901 41.41 48.8401 40.38 43.1299L40.38 43.1201C40.17 42.1299 39.38 36.77 39.21 35.6799 39.2 35.5601 39.38 35.51 39.4399 35.6101 40.4301 37.3701 40.9399 39.47 41.49 41.46 43.0601 47.1899 44.1899 54.0801 44.1801 60.1799 44.1899 60.49 43.88 60.73 43.58 60.72ZM50.3101 54.76C49.9 54.77 49.55 54.3799 49.64 53.98L49.09 38.73C49.01 38.5 49.39 38.4099 49.46 38.6299 51.47 43.5601 52.14 49.1101 50.86 54.3101 50.8101 54.5701 50.5699 54.77 50.3101 54.76L50.3101 54.76ZM80.89 40.76C80.42 40.6699 80.38 39.98 79.96 39.75 78.88 39.21 77.48 39.26 76.64 38.23L74.9301 34.3701C74.92 34.2 75.16 34.1499 75.24 34.28 76.17 35.6001 76.63 37.4399 78.25 38.1001 79.3199 38.51 80.8 38.45 81.33 39.6899 81.5 40.0701 81.38 40.73 80.89 40.76ZM83.77 37.8201C81.1899 36.0801 85.79 31.2 87.49 30.01 89.7 27.95 90.62 25.26 92.04 22.75 90.52 20.24 90.26 16.8899 90.28 13.98L90.79 12.0601C90.88 12.01 90.99 12.04 91.04 12.1201 91.14 12.22 91.12 12.3701 91.01 12.45 91.87 15.1599 92.22 17.9299 93.26 20.6399 93.4301 20.4399 93.49 20.74 93.42 20.8799 93.42 20.8799 93.42 20.8799 93.42 20.8799 93.41 20.9199 93.41 20.96 93.4 20.99 93.72 21.7 93.8101 22.79 92.91 23.03 92.03 25.6101 91.11 28.1101 89.41 30.3301 88.34 31.6399 86.88 32.53 85.9399 33.98 85.46 34.72 85.12 35.55 84.86 36.3999 84.67 36.96 84.42 37.6799 83.77 37.8201L83.77 37.8201ZM92.23 36.3601C91.75 36.4399 90.89 35.47 90.53 35.23 90.04 34.8201 89.5699 34.45 89.12 34.01 88.36 33.02 88.04 33.8401 87.21 34.5901 86.66 35.0801 86.24 35.74 85.73 36.24 85.66 36.24 85.61 36.1499 85.64 36.0901 86.04 35.24 86.51 34.4199 87.0699 33.6599 87.45 33.1499 87.88 32.3899 88.48 32.25 89.5601 32.1001 90.46 33.3301 91.3 33.8401 91.08 31.3701 92.26 29.21 94.09 27.6299 94.9399 26.8201 95.1801 25.3799 96.1801 24.79 96.21 22.6599 97.4 20.21 94.99 18.96L94.99 18.96C92.1801 16.8899 91.8 15.76 95.5 17.8 97.48 18.6499 98.45 20.0701 98.12 22.3 97.88 23.3401 98.5 26.45 96.8101 26.1399 95.09 29.8799 92.14 30.1399 93 35.26 93.14 35.8 92.85 36.3999 92.23 36.3601L92.23 36.3601Z"/></g></svg>