<svg width="624" height="351" xmlns="http://www.w3.org/2000/svg" xmlns:xlink="http://www.w3.org/1999/xlink" xml:space="preserve" overflow="hidden"><g><path d="M346.461 152.817 474.323 152.817 474.323 180.216 346.461 180.216Z" fill="#FFFFFF"/><path d="M475.1 180.216 345.295 180.216 325.863 200.911 325.863 207.227 491.619 207.227 491.619 200.911Z" fill="#FFFFFF"/><path d="M492.487 200.816C492.487 200.811 492.487 200.808 492.482 200.804 492.482 200.771 492.473 200.738 492.468 200.706 492.463 200.698 492.463 200.69 492.458 200.682 492.453 200.649 492.438 200.616 492.429 200.583 492.429 200.581 492.424 200.579 492.424 200.577 492.409 200.543 492.395 200.51 492.375 200.477 492.37 200.47 492.365 200.463 492.365 200.457 492.346 200.429 492.326 200.402 492.307 200.377 492.307 200.373 492.302 200.369 492.302 200.366L475.784 179.671C475.638 179.489 475.427 179.373 475.197 179.347L475.197 152.817C475.197 152.334 474.806 151.943 474.323 151.943L346.461 151.943C345.978 151.943 345.586 152.334 345.586 152.817L345.586 179.342 345.295 179.342C345.053 179.342 344.822 179.442 344.657 179.618L325.225 200.313C325.222 200.317 325.219 200.321 325.216 200.325 325.193 200.35 325.171 200.377 325.151 200.404 325.148 200.408 325.145 200.412 325.142 200.417 325.121 200.448 325.102 200.48 325.085 200.515 325.081 200.521 325.078 200.528 325.074 200.536 325.059 200.567 325.046 200.599 325.035 200.632 325.033 200.635 325.032 200.639 325.031 200.642 325.019 200.678 325.01 200.715 325.004 200.753 325.002 200.761 325.001 200.769 325 200.777 324.995 200.807 324.992 200.837 324.99 200.868 324.99 200.877 324.989 200.887 324.989 200.896 324.989 200.901 324.988 200.906 324.988 200.911L324.988 207.227C324.988 207.71 325.379 208.102 325.863 208.102L328.874 208.102 328.874 297.975 336.744 297.975 336.744 208.101 343.197 208.101 343.197 277.473 349.655 277.473 349.655 208.101 467.824 208.101 467.824 277.473 474.282 277.473 474.282 208.101 480.735 208.101 480.735 297.974 488.607 297.974 488.607 208.101 491.619 208.101C492.097 208.101 492.492 207.71 492.492 207.227L492.492 200.911C492.492 200.879 492.492 200.847 492.487 200.816ZM347.335 153.692 473.449 153.692 473.449 179.342 347.335 179.342 347.335 153.692ZM345.673 181.091 474.679 181.091 489.801 200.037 327.883 200.037 345.673 181.091ZM490.742 206.352 326.737 206.352 326.737 201.786 490.742 201.786 490.742 206.352Z"/><path d="M534.739 263.956C526.871 263.709 518.685 264.927 510.807 264.543 507.405 264.536 503.89 264.527 500.794 263.202 500.009 262.888 499.39 263.667 499.605 264.436 500.316 270.3 500.292 278.561 502.964 283.167 506.069 285.765 513.113 285.797 517.345 285.964 522.712 285.954 532.604 286.027 533.101 278.915 533.286 277.519 533.491 276.107 533.691 274.743 534.081 271.237 534.997 267.462 534.739 263.956Z" fill="#FFFFFF"/><path d="M535.845 256.335C534.593 255.773 534.037 255.991 533.969 257.103 533.442 256.759 533.052 255.631 532.262 255.953 532.009 256.073 531.867 256.321 531.901 256.581 531.941 256.986 531.936 257.4 531.921 257.815 531.911 258.153 531.482 258.284 531.282 258.012 530.161 256.493 527.889 255.157 526.368 255.505 522.688 255.317 518.992 255.342 515.424 255.367 511.222 255.552 509.662 254.269 507.921 258.965 506.644 258.005 505.596 256.833 504.782 255.793 504.65 255.619 504.431 255.524 504.212 255.547 502.666 255.705 501.184 255.678 499.634 256.034 499.297 256.111 499.083 256.447 499.156 256.783 499.458 258.157 499.536 259.602 499.609 260.999 499.756 261.683 499.395 263.142 500.243 263.361 506.166 264.674 512.694 264.297 519.07 264.225 523.97 264.194 529.522 264.158 534.831 263.049 534.919 263.032 534.978 262.96 534.987 262.875 535.08 261.827 535.29 260.844 535.49 259.893 535.738 258.718 535.977 257.608 535.967 256.512 535.962 256.435 535.918 256.366 535.845 256.335Z" fill="#FFFFFF"/><path d="M539.472 237.945C536.138 232.791 530.083 227.067 524.862 231.023 524.764 231.095 524.711 231.208 524.711 231.327 524.74 234.45 521.489 236.96 521.362 238.255 521.279 239.126 523.136 239.077 523.975 239.133 525.603 239.133 527.48 238.488 528.986 237.971 534.397 235.409 540.208 240.153 539.472 237.945Z" fill="#FFFFFF"/><path d="M528.031 245.029C525.978 244.278 523.853 244.145 521.771 243.606 521.079 243.498 520.967 244.322 521.532 244.616 525.876 247.982 529.089 252.843 533.486 256.058 533.705 256.061 533.905 255.884 533.925 255.665 534.427 251.065 532.535 246.403 528.031 245.029Z" fill="#FFFFFF"/><path d="M515.4 246.592C515.156 246.375 514.883 246.534 514.649 246.676 511.797 248.807 507.819 250.157 503.958 250.35 503.339 250.424 503.266 251.997 503.344 252.597 503.758 255.666 507 257.715 507.214 258.008 507.439 258.31 507.731 258.441 508.024 258.01 508.77 256.199 510.398 255.001 511.973 253.842 514.469 252.053 517.881 248.928 515.4 246.592Z" fill="#FFFFFF"/><path d="M506.927 247.068C508.97 247.065 510.92 246.747 512.728 246.481 513.079 246.442 514.239 246.346 514.117 245.502 513.586 243.927 513.216 242.263 512.86 240.653 511.417 233.757 509.837 228.461 501.725 229.558 499.819 229.659 497.85 229.763 496.168 229.071 495.968 228.989 495.744 229.045 495.607 229.21 495.471 229.376 495.456 229.607 495.573 229.787 499.419 236.131 495.87 247.33 506.927 247.068Z" fill="#FFFFFF"/><path d="M538.132 245.226C536.464 237.833 526.895 239.733 523.151 242.811 522.815 243.02 522.946 243.578 523.346 243.609 530.61 244.404 534.115 247.52 534.388 253.415 534.393 253.646 534.593 253.835 534.822 253.832 534.987 253.832 535.143 253.738 535.216 253.585 536.499 250.942 538.653 248.374 538.132 245.226Z" fill="#FFFFFF"/><path d="M531.638 255.342C531.663 255.189 531.599 255.036 531.482 254.939 528.294 252.347 525.939 249.05 522.951 246.251 522.727 246.027 522.303 246.144 522.229 246.456 521.337 249.526 523.131 254.259 526.627 254.931 528.075 255.614 529.878 255.911 530.961 257.139 532.145 257.794 531.526 255.874 531.638 255.342Z" fill="#FFFFFF"/><path d="M511.158 247.138C508.029 247.571 504.738 247.878 501.964 246.485 501.793 246.398 501.584 246.435 501.452 246.575 500.672 247.496 497.411 248.305 497.377 249.608 497.577 250.205 500.799 249.97 501.399 250.057 503.071 250.436 514.274 248.467 511.158 247.138Z" fill="#FFFFFF"/><path d="M497.952 242.55C498.24 242.559 498.469 242.241 498.362 241.967 497.908 240.688 497.65 239.364 497.396 237.769 497.362 237.52 497.094 237.344 496.85 237.415 495.446 237.783 493.969 237.093 492.507 237.182 492.209 237.189 492 237.531 492.131 237.801 493.452 240.486 495.763 241.829 497.952 242.55Z" fill="#FFFFFF"/><path d="M524.35 230.609C523.546 223.364 512.918 220.156 507 217.748 506.551 217.588 506.171 218.206 506.537 218.531 506.742 218.74 507.327 221.04 507.327 221.295 508.984 225.009 510.276 228.843 512.129 232.482 513.425 234.888 515.219 236.394 518.203 236.909 518.305 236.927 521.064 237.674 521.259 237.505 523.672 235.664 524.633 233.192 524.35 230.609Z" fill="#FFFFFF"/><path d="M541.31 239.288C537.951 233.972 532.238 226.378 525.145 230.01 524.214 224.379 518.544 221.888 513.952 219.667 511.475 218.46 508.916 217.343 506.249 216.629 505.576 216.472 504.582 216.24 504.129 216.941 503.924 217.26 504.09 217.637 504.363 217.838 504.918 218.239 505.44 218.678 505.937 219.143 506.508 222.398 508.258 225.282 509.355 228.366 509.725 229.356 510.12 230.414 510.588 231.443 510.612 231.496 510.539 231.538 510.505 231.49 508.272 228.422 504.397 228.43 500.853 228.713 498.888 228.799 496.84 228.827 494.978 228.104 494.769 228.024 494.627 228.14 494.574 228.301 494.418 228.315 494.296 228.503 494.384 228.663 494.827 229.456 495.3 230.24 495.612 231.102 496.251 233 496.519 235.001 496.831 236.974 495.037 237.006 493.316 236.153 491.512 236.498 491.186 236.555 490.995 236.96 491.083 237.256 492.117 240.613 495.373 242.81 498.639 243.684 499.19 244.725 499.961 245.697 500.94 246.373 499.205 247.134 497.299 247.982 496.251 249.638 496.017 250.03 496.329 250.428 496.728 250.472 498.786 250.697 500.848 250.869 502.905 250.829 502.193 252.164 502.73 253.723 503.436 254.934 501.94 255.019 500.438 255.11 498.986 255.488 498.542 255.603 498.44 256.028 498.571 256.359 498.547 256.766 498.513 256.902 498.479 257.32 498.23 259.352 498.561 261.401 498.654 263.436 499.054 268.582 499.522 273.738 500.492 278.811 500.716 279.941 500.965 281.087 501.379 282.163 501.779 283.193 502.339 283.962 503.31 284.534 507.302 286.542 511.997 286.585 516.38 286.82 521.601 286.756 529.181 287.119 532.745 282.665 533.764 281.241 533.895 279.456 534.129 277.775 534.768 273.18 535.221 268.568 535.65 263.948 535.802 263.751 535.802 263.526 535.704 263.335 535.904 261.063 536.021 258.792 535.982 256.516 536.226 256.191 536.045 255.584 535.616 255.512 535.446 255.486 535.27 255.456 535.1 255.427 535.743 254.046 536.63 252.805 537.362 251.476 541.934 244.368 536.474 237.611 528.557 239.421 526.042 240.042 523.565 241.218 521.605 242.923 521.142 242.868 520.679 242.822 520.216 242.79 520.143 242.725 520.06 242.731 520.002 242.775 519.69 242.691 519.49 242.973 519.738 243.195 519.836 243.261 519.933 243.321 520.036 243.379 520.338 244.331 521.113 245.153 521.874 245.859 520.314 248.309 521.654 252.411 523.609 254.293 522.532 254.264 521.454 254.245 520.372 254.234 518.768 249.229 518.066 243.334 520.728 238.568 520.835 238.496 520.918 238.398 520.967 238.283 521.035 239.025 521.669 239.573 522.346 239.781 526.1 240.729 529.557 237.944 533.281 238.036 535.802 238.09 538.19 239.079 540.413 240.185 540.959 240.457 541.695 239.875 541.31 239.288ZM512.889 220.592C517.203 222.787 523.346 225.04 523.916 230.653 524.209 233.329 522.936 235.356 520.874 236.929 520.718 236.872 520.543 236.867 520.377 236.932 518.417 234.055 516.37 231.24 514.469 228.322 512.104 224.83 509.92 221.132 506.839 218.213 506.815 218.191 506.834 218.154 506.863 218.164 508.921 218.835 510.954 219.631 512.889 220.592ZM508.721 223.52C508.375 222.732 508.053 221.93 507.731 221.131 507.717 221.1 507.761 221.075 507.78 221.101 511.641 225.897 514.629 231.287 518.305 236.219 515.648 235.76 513.81 234.688 512.514 232.274 510.978 229.484 510.1 226.384 508.721 223.52ZM497.328 241.878C495.349 241.023 493.443 239.624 492.531 237.619 494.008 237.545 495.48 238.237 496.962 237.838 497.192 239.284 497.46 240.726 497.952 242.113 497.742 242.041 497.533 241.964 497.328 241.878ZM499.707 242.902C497.621 238.713 498.552 233.517 495.939 229.546 495.914 229.506 495.953 229.457 495.997 229.475 498.717 230.595 501.969 229.749 504.845 229.955 507.951 230.085 509.832 232.089 510.812 234.897 512.177 238.361 512.514 242.126 513.703 245.642 511.1 244.274 509.179 242.021 507.234 239.871 505.289 237.817 502.739 236.303 501.438 233.704 501.36 233.578 501.106 233.611 501.126 233.788 501.716 236.571 504.787 238.264 506.542 240.323 508.409 242.406 510.198 244.638 512.665 246.047 508.287 246.693 502.013 247.808 499.707 242.902ZM518.539 254.223C516.643 254.22 514.746 254.237 512.85 254.269 514.556 253.035 516.458 251.386 517.004 249.238 517.823 250.794 518.281 252.484 518.539 254.223ZM497.786 249.458C498.264 248.983 498.854 248.613 499.434 248.281 500.175 247.854 501.165 247.516 501.769 246.876 504.67 248.333 508.087 248.005 511.217 247.572 511.275 247.564 511.295 247.64 511.246 247.664 507.098 249.649 502.32 249.842 497.786 249.458ZM506.108 250.571C509.257 250.073 512.338 248.93 514.907 247.028 514.98 247.001 515.049 246.966 515.112 246.921 517.038 248.614 514.556 251.156 513.196 252.361 511.188 254.007 508.658 255.326 507.624 257.844 506.659 256.415 507.468 254.335 508.068 252.89 508.194 252.603 507.834 252.234 507.59 252.521 506.664 253.65 506.352 255.299 506.474 256.73 505.342 255.494 504.187 254.142 503.768 252.491 503.636 251.866 503.851 251.355 503.982 250.788 504.694 250.746 505.401 250.677 506.108 250.571ZM532.233 278.804C532.062 280.144 531.711 281.543 530.624 282.442 527.061 285.166 521.625 285.032 517.325 285.089 513.698 284.989 506.537 284.806 503.656 282.644 502.944 281.908 502.793 280.809 502.51 279.859 501.316 274.666 500.892 269.336 500.448 264.006 504.397 265.701 508.853 265.35 513.06 265.437 520.084 265.433 527.104 265.126 534.105 264.561 533.447 269.34 533.008 274.024 532.233 278.804ZM535.431 256.787C535.002 258.776 534.661 260.78 534.359 262.793 525.306 263.49 516.199 263.914 507.117 263.616 504.84 263.578 502.583 263.11 500.355 262.739 500.19 260.702 500.214 258.654 499.775 256.649 501.252 256.307 502.778 256.331 504.28 256.174 505.191 257.378 506.288 258.457 507.439 259.418 507.814 259.733 508.384 259.629 508.536 259.128 508.926 257.832 509.701 256.858 510.627 256.013 515.863 256.036 521.123 255.866 526.364 256.136 526.578 256.146 526.749 256.089 526.885 255.992 528.767 256.583 530.785 257.392 531.273 259.516 531.458 260.207 532.613 260.093 532.555 259.342 532.487 258.451 532.623 257.451 532.53 256.518 532.872 256.857 533.203 257.206 533.52 257.572 533.939 258.061 534.578 257.633 534.612 257.12 534.636 256.972 534.656 256.822 534.68 256.672 534.929 256.713 535.178 256.784 535.431 256.787ZM523.395 243.174C526.471 241.123 530.6 239.461 534.217 241.046 535.938 241.86 537.342 243.391 537.698 245.297 538.195 248.294 536.045 250.855 534.822 253.396 534.505 246.411 529.718 243.867 523.395 243.174 523.395 243.174 523.395 243.174 523.395 243.174ZM521.615 244.113C521.576 244.079 521.61 244.016 521.659 244.029 523.721 244.566 525.881 244.705 527.889 245.444 532.35 246.831 533.92 251.306 533.486 255.622 531.331 253.595 529.055 251.695 527.163 249.405 525.53 247.414 523.57 245.771 521.615 244.113ZM524.258 253.113C522.805 251.365 522.049 248.795 522.654 246.571 525.622 249.357 528.026 252.702 531.204 255.279 531.131 255.793 531.273 256.325 531.282 256.841 530.151 255.626 528.47 255.175 526.949 254.639 526.797 254.471 526.529 254.376 526.261 254.383 525.515 254.088 524.799 253.718 524.258 253.113ZM517.681 245.082C517.637 246.051 517.662 247.025 517.74 247.995 517.291 247.269 515.824 245.497 514.99 245.362 513.703 241.618 513.416 237.591 511.851 233.931 511.831 233.877 511.904 233.836 511.938 233.884 513.888 236.759 516.185 236.969 519.441 237.893 519.465 237.953 519.475 237.978 519.5 238.038 518.266 240.132 517.784 242.703 517.681 245.082ZM529.737 237.257C527.719 237.904 523.97 239.493 522.064 238.202 525.164 235.69 527.256 234.31 531.414 234.667 531.746 234.684 531.814 234.171 531.492 234.09 528.606 233.314 525.681 234.453 523.395 236.224 523.365 236.246 523.331 236.209 523.356 236.183 524.535 234.875 525.252 233.202 525.257 231.43 530.966 228.094 535.904 233.55 538.853 237.987 538.873 238.011 538.848 238.04 538.819 238.029 535.923 236.854 532.779 236.196 529.737 237.257Z"/><path d="M420.448 188.406C420.165 187.85 419.896 186.332 419.24 186.208 413.03 185.957 406.508 185.92 399.302 186.095 398.835 186.128 398.797 186.735 398.585 187.055 398.412 187.599 397.71 188.45 397.952 189.004 405.563 189.545 412.905 188.998 420.051 189.002 420.343 189.002 420.562 188.677 420.448 188.406Z" fill="#FFFFFF"/><path d="M445.071 189.939C443.493 187.417 441.718 184.919 439.532 182.893 438.513 181.849 437.25 180.983 437.281 179.386 437.636 169.796 437.58 160.724 437.599 150.989 437.569 149.556 437.724 145.996 436.156 145.33 420.181 145.27 404.777 145.569 388.512 145.41 385.398 144.976 385.06 147.525 385.104 149.98 385.008 159.653 385.16 169.643 385.175 178.904 385.163 179.204 385.049 179.628 385.418 179.766 384.098 181.623 375.147 189.855 376.708 191.639 378.803 193.277 381.895 193.168 382.094 193.145 390.774 192.634 431.819 192.936 441.863 193.034 442.825 192.875 444.405 191.521 445.099 191.014 445.346 190.685 445.233 190.196 445.071 189.939ZM387.038 173.309C387.209 164.875 387.073 156.463 387.323 148.061 387.327 147.889 387.233 147.63 387.501 147.625 387.528 147.924 436.519 146.866 435.856 148.025 436.006 154.058 436.019 159.592 435.912 166.29 435.923 169.552 435.67 172.805 435.827 176.059 435.893 176.195 435.884 176.421 435.668 176.419 435.451 176.304 387.239 176.574 387.087 176.359 386.953 175.387 387.05 174.305 387.038 173.309ZM421.047 189.368C413.118 189.639 404.924 189.737 397.207 189.549 397.006 189.324 398.619 185.629 398.916 185.668 405.791 185.704 413.217 185.09 419.565 186.007 419.846 186.605 420.326 187.173 420.539 187.849 420.61 188.282 421.383 189.041 421.047 189.368Z" fill="#FFFFFF"/><path d="M435.575 149.08C435.625 148.7 435.733 148.081 435.185 148.062 434.85 148.216 387.72 147.767 387.505 148.218 387.242 148.71 387.625 149.313 387.602 149.896 387.698 150.807 387.646 151.765 387.652 152.687 387.851 159.731 387.289 168.436 387.584 175.854 387.757 176.228 434.622 175.853 434.902 175.983 435.143 175.982 435.339 175.787 435.339 175.546 435.45 166.719 435.489 157.871 435.575 149.08Z" fill="#FFFFFF"/><path d="M445.79 189.005C445.518 188.486 445.114 188.051 444.753 187.593 444.262 186.971 443.79 186.334 443.298 185.713 442.383 184.556 441.402 183.467 440.341 182.442 439.568 181.696 438.854 180.856 438.068 180.114 438.246 179.022 438.193 177.858 438.221 176.761 438.281 174.454 438.315 172.147 438.344 169.84 438.413 164.574 438.453 159.308 438.454 154.041 438.455 152.546 438.467 151.047 438.425 149.552 438.393 148.427 438.308 147.229 437.908 146.169 437.591 145.33 436.987 144.433 435.999 144.39 435.274 144.359 434.539 144.397 433.814 144.4 432.228 144.408 430.642 144.415 429.057 144.422 424.345 144.443 419.634 144.462 414.922 144.48 409.891 144.499 404.859 144.517 399.828 144.53 396.505 144.537 393.18 144.553 389.857 144.534 388.461 144.526 386.845 144.205 385.683 145.119 384.305 146.203 384.251 148.253 384.206 149.856 384.193 150.33 384.194 150.805 384.191 151.279 384.162 155.941 384.176 160.602 384.202 165.264 384.226 169.811 384.154 174.403 384.543 178.938 384.56 179.137 384.605 179.39 384.668 179.655 384.548 179.892 384.571 180.205 384.737 180.414 383.866 181.097 383.05 181.866 382.238 182.61 381.178 183.582 380.16 184.6 379.231 185.7 378.494 186.574 377.773 187.476 377.078 188.384 376.663 188.927 375.448 190.354 375.917 191.119 375.928 191.478 376.168 191.883 376.366 192.128 376.786 192.648 377.367 192.944 377.989 193.159 379.138 193.557 380.528 193.734 381.718 193.474 381.744 193.468 381.767 193.46 381.79 193.451 383.507 193.611 385.244 193.653 386.967 193.672 388.97 193.694 390.974 193.728 392.978 193.728 396.954 193.728 400.93 193.728 404.907 193.728 412.861 193.728 420.814 193.728 428.768 193.728 430.998 193.728 433.228 193.728 435.458 193.728 436.556 193.728 437.655 193.728 438.753 193.728 439.864 193.728 440.988 193.81 442.071 193.541 442.88 193.748 443.851 193.122 444.448 192.652 444.735 192.426 444.998 192.17 445.21 191.883 446.34 191.501 446.246 189.875 445.79 189.005ZM435.984 145.702C436.051 145.708 436.072 145.731 435.984 145.702L435.984 145.702ZM385.492 154.04C385.494 152.677 385.485 151.313 385.515 149.95 385.542 148.749 385.457 146.588 386.762 145.975 387.458 145.647 388.259 145.822 389 145.836 391.623 145.885 394.251 145.851 396.874 145.846 401.628 145.838 406.382 145.822 411.137 145.805 416.049 145.787 420.96 145.767 425.872 145.746 428.968 145.733 432.064 145.72 435.161 145.705 435.424 145.704 435.688 145.706 435.951 145.702 435.962 145.702 435.971 145.702 435.98 145.703 436.487 145.888 436.681 146.561 436.806 147.032 437.194 148.496 437.129 150.074 437.137 151.578 437.162 156.38 437.123 161.183 437.076 165.985 437.034 170.327 437.035 174.68 436.834 179.018 436.829 179.119 436.824 179.221 436.819 179.322 430.2 179.322 423.58 179.322 416.961 179.322 410.19 179.322 403.418 179.322 396.648 179.322 392.95 179.322 389.252 179.322 385.554 179.322 385.572 179.163 385.587 179.031 385.587 178.866 385.589 178.066 385.571 177.265 385.573 176.465 385.578 174.133 385.563 171.8 385.542 169.468 385.496 164.326 385.481 159.183 385.492 154.04ZM377.373 190.263C377.631 189.802 377.943 189.369 378.266 188.951 378.947 188.069 379.613 187.165 380.315 186.301 381.187 185.228 382.147 184.226 383.079 183.205 383.825 182.389 384.615 181.56 385.236 180.634 392.007 180.634 398.776 180.634 405.547 180.634 412.318 180.634 419.09 180.634 425.861 180.634 429.585 180.634 433.31 180.634 437.034 180.634 437.433 181.479 438.174 182.162 438.832 182.808 439.76 183.716 440.714 184.603 441.525 185.621 442.345 186.65 443.047 187.766 443.838 188.816 444.128 189.202 444.42 189.604 444.633 190.039 444.724 190.227 444.82 190.418 444.78 190.563 444.761 190.631 444.727 190.695 444.686 190.758 444.636 190.806 444.586 190.853 444.535 190.901 443.503 190.67 442.468 190.712 441.412 190.712 440.313 190.712 439.215 190.712 438.116 190.712 435.886 190.712 433.656 190.712 431.426 190.712 427.029 190.712 422.631 190.712 418.234 190.712 409.405 190.712 400.577 190.712 391.749 190.712 389.292 190.712 386.836 190.734 384.379 190.759 381.921 190.784 379.445 190.81 376.999 191.058 377.152 190.819 377.234 190.512 377.373 190.263ZM439.238 192.415C438.236 192.415 437.234 192.415 436.233 192.415 434.229 192.415 432.226 192.415 430.223 192.415 426.246 192.415 422.27 192.415 418.294 192.415 410.339 192.415 402.386 192.415 394.432 192.415 392.202 192.415 389.972 192.437 387.742 192.462 385.842 192.484 383.926 192.507 382.03 192.671 381.967 192.557 381.864 192.467 381.718 192.435 380.669 192.203 379.59 192.271 378.547 191.973 378.351 191.917 378.152 191.847 377.96 191.764 379.77 191.908 381.596 191.949 383.41 191.968 385.64 191.99 387.87 192.024 390.1 192.024 394.498 192.024 398.895 192.024 403.293 192.024 412.121 192.024 420.949 192.024 429.778 192.024 432.234 192.024 434.691 192.024 437.147 192.024 438.407 192.024 439.667 192.024 440.928 192.024 441.595 192.024 442.264 192.048 442.929 192.024 442.574 192.182 442.212 192.337 441.931 192.569 441.043 192.374 440.149 192.415 439.238 192.415Z"/><path d="M387.211 176.818C399.804 176.818 412.396 176.818 424.989 176.818 428.54 176.818 432.091 176.818 435.642 176.818 436.229 176.818 436.408 176.183 436.177 175.797 436.182 175.763 436.186 175.729 436.186 175.693 436.187 172.547 436.279 169.401 436.318 166.257 436.376 161.721 436.407 157.183 436.382 152.647 436.377 151.71 436.427 150.744 436.331 149.812 436.279 149.31 436.195 148.818 436.109 148.324 436.514 147.988 436.38 147.149 435.704 147.149 427.727 147.149 419.749 147.149 411.771 147.149 411.855 147.091 411.925 147.02 411.977 146.931 412.007 146.878 412.03 146.823 412.046 146.766 412.078 146.645 412.078 146.525 412.046 146.406 412.025 146.317 411.962 146.187 411.902 146.121 411.854 146.047 411.79 145.988 411.711 145.945 411.656 145.922 411.602 145.899 411.548 145.876 411.427 145.843 411.305 145.843 411.184 145.876 411.13 145.899 411.076 145.922 411.021 145.945 410.918 146.006 410.837 146.087 410.776 146.19 410.748 146.249 410.718 146.309 410.7 146.371 410.699 146.374 410.699 146.377 410.698 146.381 410.697 146.382 410.697 146.384 410.697 146.386 410.689 146.446 410.681 146.506 410.672 146.567 410.665 146.688 410.708 146.832 410.768 146.935 410.818 147.02 410.886 147.093 410.966 147.149 406.691 147.149 402.417 147.149 398.142 147.149 394.586 147.149 391.03 147.149 387.474 147.149 386.977 147.149 386.772 147.605 386.861 147.98 386.86 147.991 386.859 148.002 386.859 148.013 386.851 148.538 386.779 149.07 386.744 149.594 386.692 150.384 386.739 151.182 386.745 151.973 386.763 154.087 386.759 156.201 386.739 158.315 386.697 162.782 386.63 167.248 386.592 171.715 386.581 173.041 386.554 174.367 386.553 175.693 386.553 175.793 386.572 175.881 386.605 175.958 386.498 176.336 386.699 176.818 387.211 176.818ZM425.053 148.46C428.422 148.46 431.79 148.46 435.16 148.46 435.134 148.839 435.089 149.218 435.065 149.593 435.013 150.383 435.06 151.181 435.066 151.972 435.084 154.086 435.08 156.2 435.06 158.314 435.018 162.781 434.951 167.247 434.913 171.714 434.902 172.978 434.878 174.242 434.875 175.506 422.539 175.506 410.203 175.506 397.867 175.506 394.534 175.506 391.201 175.506 387.868 175.506 387.873 172.423 387.961 169.339 388 166.256 388.057 161.72 388.089 157.183 388.064 152.646 388.059 151.71 388.109 150.744 388.012 149.812 387.965 149.356 387.892 148.908 387.814 148.46 400.226 148.46 412.64 148.46 425.053 148.46Z"/><path d="M397.344 190.027C405.19 190.027 413.036 190.026 420.879 189.816 421.009 189.813 421.119 189.778 421.209 189.723 421.442 189.613 421.605 189.311 421.557 189.05 421.492 188.691 421.234 188.357 421.083 188.024 420.944 187.716 420.822 187.401 420.676 187.096 420.496 186.716 420.284 186.272 419.977 185.949 419.962 185.632 419.752 185.318 419.346 185.301 412.527 185.021 405.701 185.019 398.88 185.192 398.585 185.199 398.394 185.365 398.305 185.576 398.262 185.623 398.223 185.681 398.192 185.752 397.71 186.827 397.131 187.863 396.811 189.003 396.577 189.388 396.754 190.027 397.344 190.027ZM419.196 186.607C419.251 186.698 419.307 186.79 419.357 186.884 419.523 187.201 419.64 187.538 419.77 187.87 419.85 188.075 419.927 188.3 420.014 188.525 412.773 188.705 405.528 188.716 398.285 188.716 398.57 187.955 398.951 187.235 399.287 186.494 405.923 186.332 412.563 186.338 419.196 186.607Z"/><path d="M68.914 281.244C68.914 283.85 66.8014 285.962 64.1955 285.962 61.5895 285.962 59.477 283.85 59.477 281.244 59.477 278.638 61.5895 276.525 64.1955 276.525 66.8014 276.525 68.914 278.638 68.914 281.244Z"/><path d="M286.882 281.244C286.882 283.85 284.77 285.962 282.164 285.962 279.558 285.962 277.445 283.85 277.445 281.244 277.445 278.638 279.558 276.525 282.164 276.525 284.77 276.525 286.882 278.638 286.882 281.244Z"/><path d="M67.7727 37.4756 278.435 37.4756 278.435 177.968 67.7727 177.968Z" fill="#FFFFFF"/><path d="M64.1194 251.866 282.087 251.866 282.087 260.086 64.1194 260.086Z" fill="#FFFFFF"/><path d="M70.2843 278.504 58.1076 278.504 58.1076 270.213C58.1076 268.067 59.8475 266.327 61.9939 266.327L66.398 266.327C68.5445 266.327 70.2843 268.067 70.2843 270.213L70.2843 278.504Z" fill="#FFFFFF"/><path d="M288.252 278.504 276.075 278.504 276.075 270.213C276.075 268.067 277.815 266.327 279.962 266.327L284.366 266.327C286.512 266.327 288.252 268.067 288.252 270.213L288.252 278.504Z" fill="#FFFFFF"/><path d="M67.9638 177.968 278.435 177.968 278.435 185.731 67.9638 185.731Z" fill="#FFFFFF"/><path d="M112.675 185.73 234.597 185.73 234.597 190.449 112.675 190.449Z" fill="#FFFFFF"/><path d="M285.741 265.807 285.741 106.254C285.741 103.996 283.91 102.166 281.653 102.166L279.163 102.166 279.163 37.4756C279.163 37.0729 278.837 36.7468 278.435 36.7468L67.7727 36.7468C67.3701 36.7468 67.0439 37.0729 67.0439 37.4756L67.0439 102.166 64.6308 102.166C62.3727 102.166 60.5426 103.996 60.5426 106.254L60.5426 265.833C58.7067 266.443 57.3787 268.176 57.3787 270.213L57.3787 278.504C57.3787 278.907 57.7049 279.233 58.1076 279.233L70.2843 279.233C70.687 279.233 71.0132 278.907 71.0132 278.504L71.0132 270.213C71.0132 268.147 69.6481 266.394 67.7727 265.807L67.7727 260.815 278.511 260.815 278.511 265.833C276.675 266.443 275.347 268.176 275.347 270.213L275.347 278.504C275.347 278.907 275.673 279.233 276.076 279.233L288.252 279.233C288.655 279.233 288.981 278.907 288.981 278.504L288.981 270.213C288.981 268.147 287.616 266.394 285.741 265.807ZM69.5555 270.213 69.5555 277.775 58.8359 277.775 58.8359 270.213C58.8359 268.472 60.2526 267.055 61.9934 267.055L66.3975 267.055C68.1389 267.055 69.5555 268.472 69.5555 270.213ZM68.5016 38.2044 277.706 38.2044 277.706 177.239 68.5016 177.239 68.5016 38.2044ZM68.5016 178.696 277.706 178.696 277.706 185.001 235.326 185.001 111.947 185.001 68.5016 185.001 68.5016 178.696ZM233.868 186.459 233.868 189.72 113.404 189.72 113.404 186.459 233.868 186.459ZM67.7727 186.459 111.947 186.459 111.947 191.178 235.326 191.178 235.326 186.459 278.511 186.459 278.511 251.138 67.7727 251.138 67.7727 186.459ZM67.7727 259.357 67.7727 252.595 278.511 252.595 278.511 259.357 67.7727 259.357ZM287.524 277.775 276.804 277.775 276.804 270.213C276.804 268.472 278.221 267.055 279.962 267.055L284.366 267.055C286.107 267.055 287.523 268.472 287.523 270.213L287.523 277.775Z"/><path d="M156.474 184.741 133.109 184.741C132.374 184.741 131.778 184.145 131.778 183.409L131.778 176.483C131.778 175.748 132.374 175.151 133.109 175.151L156.474 175.151C157.21 175.151 157.806 175.748 157.806 176.483L157.806 183.409C157.806 184.145 157.21 184.741 156.474 184.741Z"/></g></svg>